# AST/ASF file generated using VICON BodyLanguage
# -----------------------------------------------
:version 1.10
:name VICON
:units
  mass 1.0
  length 0.45
  angle deg
:documentation
   .ast/.asf automatically generated from VICON data using
   VICON BodyBuilder and BodyLanguage model FoxedUp or BRILLIANT.MOD
:root
   order TX TY TZ RX RY RZ
   axis XYZ
   position 0 0 0  
   orientation 0 0 0 
:bonedata
  begin
     id 1 
     name lhipjoint
     direction 0.624716 -0.669793 0.401383 
     length 2.38238 
     axis 0 0 0  XYZ
  end
  begin
     id 2 
     name lfemur
     direction 0.34202 -0.939693 0  
     length 6.4574  
     axis 0 0 20  XYZ
    dof rx ry rz
    limits (-160.0 20.0)
           (-70.0 70.0)
           (-60.0 70.0)
  end
  begin
     id 3 
     name ltibia
     direction 0.34202 -0.939693 0   
     length 7.68739   
     axis 0 0 20   XYZ
    dof rx
    limits (-10.0 170.0)
  end
  begin
     id 4 
     name lfoot
     direction 0.0681309 -0.187188 0.979959   
     length 2.46615   
     axis -90 7.62852e-016 20   XYZ
    dof rx rz
    limits (-45.0 90.0)
           (-70.0 20.0)
  end
  begin
     id 5 
     name ltoes
     direction 1.53566e-011 -4.21819e-011 1   
     length 1.2376   
     axis -90 7.62852e-016 20   XYZ
    dof rx
    limits (-90.0 20.0)
  end
  begin
     id 6 
     name rhipjoint
     direction -0.644473 -0.655875 0.393043   
     length 2.43293  
     axis 0 0 0  XYZ 
  end
  begin
     id 7 
     name rfemur
     direction -0.34202 -0.939693 0   
     length 6.7025   
     axis 0 0 -20   XYZ
    dof rx ry rz
    limits (-160.0 20.0)
           (-70.0 70.0)
           (-70.0 60.0)
  end
  begin
     id 8 
     name rtibia
     direction -0.34202 -0.939693 0   
     length 7.80547   
     axis 0 0 -20   XYZ
    dof rx
    limits (-10.0 170.0)
 end
 begin
     id 9 
     name rfoot
     direction -0.0756734 -0.207911 0.975216   
     length 2.40315  
     axis -90 -7.62852e-016 -20   XYZ
    dof rx rz
    limits (-45.0 90.0)
           (-20.0 70.0)
  end
  begin
     id 10 
     name rtoes
     direction -1.5353e-011 -4.21879e-011 1   
     length 1.20477   
     axis -90 -7.62852e-016 -20   XYZ
    dof rx
    limits (-90.0 20.0)
  end
  begin
     id 11 
     name lowerback
     direction 0.0160353 0.987463 -0.157037   
     length 2.18572   
     axis 0 0 0   XYZ
    dof rx ry rz
    limits (-20.0 45.0)
           (-30.0 30.0)
           (-30.0 30.0)
  end
  begin
     id 12 
     name upperback
     direction -0.00499661 0.999756 0.0215076   
     length 2.18016   
     axis 0 0 0   XYZ
    dof rx ry rz
    limits (-20.0 45.0)
           (-30.0 30.0)
           (-30.0 30.0)
  end
  begin
     id 13 
     name thorax
     direction -0.00921346 0.995333 0.0960619   
     length 2.24923   
     axis 0 0 0   XYZ
    dof rx ry rz
    limits (-20.0 45.0)
           (-30.0 30.0)
           (-30.0 30.0)
  end
  begin
     id 14 
     name lowerneck
     direction 0.0274184 0.991181 0.12965   
     length 1.70911   
     axis 0 0 0   XYZ
    dof rx ry rz
    limits (-20.0 45.0)
           (-30.0 30.0)
           (-30.0 30.0)
  end
  begin
     id 15 
     name upperneck
     direction 0.0015627 0.999959 -0.00893559   
     length 1.69312   
     axis 0 0 0   XYZ
    dof rx ry rz
    limits (-20.0 45.0)
           (-30.0 30.0)
           (-30.0 30.0)
  end
  begin
     id 16
     name head
     direction -0.00230242 0.999856 -0.0168327  
     length 1.80241  
     axis 0 0 0   XYZ
    dof rx ry rz
    limits (-20.0 45.0)
           (-30.0 30.0)
           (-30.0 30.0)
  end
  begin
     id 17 
     name lclavicle
     direction 0.955523 0.290741 -0.0494489  
     length 3.84275  
     axis 0 0 0   XYZ
    dof ry rz
    limits (-20.0 10.0)
           (0.0 20.0)
  end
  begin
     id 18 
     name lhumerus
     direction 1 -4.48967e-011 -3.18382e-028   
     length 5.17714   
     axis 180 -30 -90   XYZ
    dof rx ry rz
    limits (-60.0 90.0)
           (-90.0 90.0)
           (-90.0 90.0)
  end
  begin
     id 19
     name lradius
     direction 1 -4.48968e-011 -2.22911e-027   
     length 3.43679   
     axis 180 -30 -90   XYZ
    dof rx
    limits (-10.0 170.0)
  end
  begin
     id 20
     name lwrist
     direction 1 -4.48951e-011 -6.32245e-027   
     length 1.7184   
     axis 3.57107e-015 90 90   XYZ
    dof ry
    limits (-180.0 0.0)
 end
  begin
     id 21 
     name lhand
     direction 1 -4.48924e-011 -1.26431e-026   
     length 0.573117   
     axis 8.06912e-015 90 90   XYZ
    dof rx rz
    limits (-90.0 90.0)
           (-45.0 45.0)
  end
  begin
     id 22 
     name lfingers
     direction 1 -4.49001e-011 -2.52965e-026   
     length 0.462062   
     axis 1.61381e-014 90 90   XYZ
    dof rx
    limits (0.0 90.0)
  end
  begin
     id 23
     name lthumb
     direction 0.707107 -6.35008e-011 0.707107   
     length 0.663431   
     axis -90 45 -1.62303e-014   XYZ
    dof rx rz
    limits (-45.0 45.0)
           (-45.0 45.0)
  end
  begin
     id 24 
     name rclavicle
     direction -0.963917 0.256881 -0.0698287   
     length 3.73057  
     axis 0 0 0   XYZ 
    dof ry rz
    limits (-10.0 20.0)
           (-20.0 0.0)
  end
  begin
     id 25 
     name rhumerus
     direction -1 -4.48962e-011 -2.73982e-027  
     length 5.23908   
     axis 180 30 90   XYZ
    dof rx ry rz
    limits (-90.0 60.0)
           (-90.0 90.0)
           (-90.0 90.0)
  end
  begin
     id 26 
     name rradius
     direction -1 -4.48968e-011 -4.33218e-027   
     length 3.46485   
     axis 180 30 90   XYZ
    dof rx
    limits (-10.0 170.0)
  end
  begin
     id 27 
     name rwrist
     direction -1 -4.48989e-011 -6.32372e-027   
     length 1.73243   
     axis 3.57107e-015 -90 -90   XYZ
    dof ry
    limits (-180.0 0.0)
  end
  begin
     id 28
     name rhand
     direction -1 -4.48948e-011 -1.26448e-026   
     length 0.608752   
     axis 8.06912e-015 -90 -90   XYZ
    dof rx rz
    limits (-90.0 90.0)
           (-45.0 45.0)
  end
  begin
     id 29
     name rfingers
     direction -1 -4.48962e-011 -2.52913e-026   
     length 0.490792   
     axis 1.61381e-014 -90 -90   XYZ
    dof rx
    limits (0.0 90.0)
  end
  begin
     id 30
     name rthumb
     direction -0.707107 -6.34878e-011 0.707107   
     length 0.704682   
     axis -90 -45 1.62303e-014   XYZ
    dof rx rz
    limits (-45.0 45.0)
           (-45.0 45.0)
  end
:hierarchy
  begin
    root lhipjoint rhipjoint lowerback
    lhipjoint lfemur
    lfemur ltibia
    ltibia lfoot
    lfoot ltoes
    rhipjoint rfemur
    rfemur rtibia
    rtibia rfoot
    rfoot rtoes
    lowerback upperback
    upperback thorax
    thorax lowerneck lclavicle rclavicle
    lowerneck upperneck
    upperneck head
    lclavicle lhumerus
    lhumerus lradius
    lradius lwrist
    lwrist lhand lthumb
    lhand lfingers
    rclavicle rhumerus
    rhumerus rradius
    rradius rwrist
    rwrist rhand rthumb
    rhand rfingers
  end

#!OML:ASF G:\JayActor3\Patient Classification 1\Patient 1\Session 6\male.ASF
:FULLY-SPECIFIED
:DEGREES
480
root 34.0413 15.9583 -14.9669 -6.95795 -60.6251 8.05528
lowerback 2.2808 -5.29295 -5.43845
upperback -1.83563 -7.26809 0.00588646
thorax -2.49776 -3.52605 3.30235
lowerneck -3.8456 4.96942 6.75571
upperneck 4.60637 6.55769 -5.82794
head 2.63977 3.23149 -2.86076
rclavicle 5.56846e-014 1.17283e-014
rhumerus -37.9164 -6.57729 -78.4192
rradius 22.5911
rwrist 6.99534
rhand -10.8084 -5.32911
rfingers 7.12502
rthumb 15.2051 -34.7504
lclavicle 5.56846e-014 1.17283e-014
lhumerus -26.213 12.5205 77.477
lradius 45.0814
lwrist 22.8194
lhand -8.73931 15.1391
lfingers 7.12502
lthumb 17.1974 44.3981
rfemur -38.8038 4.63709 18.2992
rtibia 45.8524
rfoot -14.4297 -11.5259
rtoes -7.79364
lfemur 11.1306 27.9431 -25.3416
ltibia 10.1869
lfoot -4.81264 -20.2837
ltoes 12.3699
481
root 33.9647 15.9647 -14.924 -6.77335 -60.4955 7.97062
lowerback 2.23808 -5.38493 -5.46266
upperback -1.88786 -7.38927 0.0666779
thorax -2.50579 -3.58446 3.37818
lowerneck -3.95982 5.05852 6.90842
upperneck 4.84657 6.67749 -5.97214
head 2.76555 3.28844 -2.93034
rclavicle 5.49018e-014 -9.14409e-015
rhumerus -38.2284 -6.94444 -78.086
rradius 22.4141
rwrist 7.22999
rhand -10.6055 -5.29253
rfingers 7.12502
rthumb 15.4005 -34.6989
lclavicle 5.49018e-014 -9.14409e-015
lhumerus -26.3147 12.1648 77.7638
lradius 45.2098
lwrist 22.8349
lhand -8.67632 15.4374
lfingers 7.12502
lthumb 17.258 44.6911
rfemur -38.5997 4.86328 18.4699
rtibia 43.7942
rfoot -14.5173 -11.8886
rtoes -7.62076
lfemur 12.3381 27.5252 -25.2176
ltibia 8.36294
lfoot -4.05913 -19.9283
ltoes 12.4735
482
root 33.8867 15.97 -14.8805 -6.59823 -60.3649 7.88724
lowerback 2.17778 -5.47222 -5.4916
upperback -1.92847 -7.5027 0.130517
thorax -2.49133 -3.63984 3.45663
lowerneck -4.08648 5.13867 7.04868
upperneck 5.08435 6.78495 -6.10867
head 2.89206 3.33891 -2.99545
rclavicle 7.09164e-014 1.90833e-014
rhumerus -38.5261 -7.32892 -77.7359
rradius 22.2244
rwrist 7.48274
rhand -10.356 -5.24667
rfingers 7.12502
rthumb 15.6408 -34.6344
lclavicle 7.09164e-014 1.90833e-014
lhumerus -26.3756 11.8415 78.0591
lradius 45.2584
lwrist 22.8693
lhand -8.62451 15.8067
lfingers 7.12502
lthumb 17.3079 45.056
rfemur -38.3731 5.17678 18.59
rtibia 41.8072
rfoot -14.6868 -12.2642
rtoes -7.4925
lfemur 13.8574 27.1019 -25.1078
ltibia 5.97654
lfoot -3.0494 -19.4648
ltoes 12.6349
483
root 33.8073 15.9736 -14.8365 -6.44884 -60.228 7.8179
lowerback 2.1166 -5.55859 -5.52221
upperback -1.96566 -7.61494 0.187854
thorax -2.47327 -3.69485 3.52875
lowerneck -4.20162 5.2102 7.18581
upperneck 5.30601 6.88091 -6.2383
head 3.01052 3.38387 -3.0586
rclavicle 5.46161e-014 1.25234e-014
rhumerus -38.823 -7.74107 -77.371
rradius 22.0222
rwrist 7.76135
rhand -10.0549 -5.21281
rfingers 7.12502
rthumb 15.9307 -34.5776
lclavicle 5.46161e-014 1.25234e-014
lhumerus -26.4146 11.5283 78.352
lradius 45.2363
lwrist 22.9516
lhand -8.63912 16.2897
lfingers 7.12502
lthumb 17.2938 45.5402
rfemur -38.1186 5.56127 18.6584
rtibia 39.9158
rfoot -14.9483 -12.6238
rtoes -7.32831
lfemur 16.5373 26.6775 -25.0474
ltibia 1.45322
lfoot -1.08533 -18.5933
ltoes 12.8803
484
root 33.7269 15.9754 -14.7925 -6.31256 -60.0977 7.76654
lowerback 2.04441 -5.63939 -5.56043
upperback -2.00239 -7.7194 0.242538
thorax -2.44843 -3.74613 3.60062
lowerneck -4.31364 5.27336 7.31215
upperneck 5.51003 6.96533 -6.35679
head 3.12119 3.42316 -3.11668
rclavicle 7.29291e-014 -4.37326e-015
rhumerus -39.1089 -8.18622 -76.9864
rradius 21.8055
rwrist 8.05738
rhand -9.70432 -5.21123
rfingers 7.12502
rthumb 16.2684 -34.5487
lclavicle 7.29291e-014 -4.37326e-015
lhumerus -26.4164 11.2295 78.648
lradius 45.1249
lwrist 23.0851
lhand -8.66809 16.8063
lfingers 7.12502
lthumb 17.2659 46.0593
rfemur -37.8673 6.01742 18.6797
rtibia 38.1417
rfoot -15.2828 -12.9479
rtoes -7.02342
lfemur 17.5551 26.2604 -24.9826
ltibia 9.54166e-015
lfoot -0.486559 -18.2463
ltoes 13.1697
